<svg xmlns="http://www.w3.org/2000/svg" version="1.1" xmlns:xlink="http://www.w3.org/1999/xlink" xmlns:svgjs="http://svgjs.dev/svgjs" width="128" height="128" viewBox="0 0 128 128"><g transform="matrix(0.8046875,0,0,0.8046875,12.333870967741937,13.591911217844263)"><svg viewBox="0 0 155 152" data-background-color="#ffffff" preserveAspectRatio="xMidYMid meet" height="125" width="128" xmlns="http://www.w3.org/2000/svg" xmlns:xlink="http://www.w3.org/1999/xlink"><g id="tight-bounds" transform="matrix(1,0,0,1,0.25,0.17396313364054095)"><svg viewBox="0 0 154.5 151.6520737327189" height="151.6520737327189" width="154.5"><g><svg viewBox="0 0 154.5 151.6520737327189" height="151.6520737327189" width="154.5"><g><svg viewBox="0 0 154.5 151.6520737327189" height="151.6520737327189" width="154.5"><g id="textblocktransform"><svg viewBox="0 0 154.5 151.6520737327189" height="151.6520737327189" width="154.5" id="textblock"><g><svg viewBox="0 0 154.5 151.6520737327189" height="151.6520737327189" width="154.5"><g transform="matrix(1,0,0,1,0,0)"><svg width="154.5" viewBox="1.75 -42.35 43.4 42.6" height="151.6520737327189" data-palette-color="#c53683"><path d="M42.05-41.5Q43.6-41.2 44.38-40.45 45.15-39.7 45.15-38.7L45.15-38.7Q45.15-37.05 44.23-36.3 43.3-35.55 41.3-35.7L41.3-35.7Q36.8-36.05 34.27-36.18 31.75-36.3 27.65-36.35L27.65-36.35Q25.8-27.15 24.25-17.85L24.25-17.85Q23.7-14.45 23.1-9.98 22.5-5.5 22.3-2.75L22.3-2.75Q22.2-1.3 21.1-0.53 20 0.25 18.45 0.25L18.45 0.25Q16.8 0.25 15.9-0.55 15-1.35 15-2.65L15-2.65Q15-3.85 15.38-6.63 15.75-9.4 16.25-12.45L16.25-12.45Q16.8-15.5 17.1-17.75L17.1-17.75Q17.65-21.55 18.35-25.3 19.05-29.05 19.75-32.4L19.75-32.4Q19.9-33.15 20.1-34.13 20.3-35.1 20.55-36.3L20.55-36.3Q15.65-36.15 12.85-35.5 10.05-34.85 8.88-33.68 7.7-32.5 7.7-30.65L7.7-30.65Q7.7-28.95 8.7-27.4L8.7-27.4Q8.9-27.05 8.9-26.65L8.9-26.65Q8.9-25.7 7.78-24.88 6.65-24.05 5.45-24.05L5.45-24.05Q4.6-24.05 4.05-24.55L4.05-24.55Q3.05-25.4 2.4-26.98 1.75-28.55 1.75-30.55L1.75-30.55Q1.75-34.8 4.53-37.38 7.3-39.95 12.98-41.15 18.65-42.35 27.55-42.35L27.55-42.35Q33.05-42.35 36.33-42.15 39.6-41.95 42.05-41.5L42.05-41.5Z" opacity="1" transform="matrix(1,0,0,1,0,0)" fill="#c53683" class="wordmark-text-0" data-fill-palette-color="primary" id="text-0"></path></svg></g></svg></g></svg></g></svg></g></svg></g><defs></defs></svg><rect width="154.5" height="151.6520737327189" fill="none" stroke="none" visibility="hidden"></rect></g></svg></g></svg>